<?xml version="1.0" standalone="no"?>
<!DOCTYPE svg PUBLIC "-//W3C//DTD SVG 20010904//EN"
 "http://www.w3.org/TR/2001/REC-SVG-20010904/DTD/svg10.dtd">
<svg version="1.0" xmlns="http://www.w3.org/2000/svg"
 width="300.000000pt" height="300.000000pt" viewBox="0 0 300.000000 300.000000"
 preserveAspectRatio="xMidYMid meet">
<metadata>
Created by potrace 1.14, written by Peter Selinger 2001-2017
</metadata>
<g transform="translate(0.000000,300.000000) scale(0.100000,-0.100000)"
fill="#000000" stroke="none">
<path d="M1022 2788 c-7 -7 -12 -29 -12 -49 l0 -38 38 6 c34 5 35 4 18 -9 -10
-8 -16 -20 -12 -26 4 -7 3 -12 -2 -12 -5 0 -12 -9 -15 -20 -7 -28 9 -25 66 11
53 33 56 51 11 60 l-29 7 31 1 c38 1 69 -20 61 -43 -5 -13 -3 -15 11 -7 9 5
24 18 34 29 15 19 14 22 -15 50 -18 17 -45 36 -60 41 -38 15 -110 14 -125 -1z"/>
<path d="M1288 2749 c-22 -12 -22 -28 -3 -53 14 -19 15 -19 35 -1 38 35 11 80
-32 54z"/>
<path d="M1967 2713 c-3 -4 18 -21 46 -37 l51 -29 -25 34 c-25 33 -62 49 -72
32z"/>
<path d="M1664 2700 c-33 -13 -37 -38 -8 -56 28 -19 36 -14 52 34 10 28 9 32
-6 31 -9 0 -26 -4 -38 -9z"/>
<path d="M1744 2672 c-20 -13 -38 -56 -25 -60 30 -10 134 -87 162 -120 29 -35
30 -35 16 -7 -8 17 -18 45 -22 62 -7 34 -88 133 -108 133 -7 0 -17 -4 -23 -8z"/>
<path d="M1830 2670 c0 -10 89 -65 95 -58 4 4 -81 68 -90 68 -3 0 -5 -4 -5
-10z"/>
<path d="M1910 2676 c0 -3 11 -17 25 -32 20 -22 36 -28 71 -29 54 -2 53 11 -2
42 -34 20 -94 31 -94 19z"/>
<path d="M1583 2648 c4 -10 10 -25 13 -33 3 -8 2 -15 -4 -15 -6 0 -20 -25 -33
-55 -12 -30 -26 -55 -30 -55 -4 0 -14 -3 -23 -6 -11 -4 -18 4 -25 28 -7 24 -9
27 -10 11 -2 -35 -21 -37 -27 -3 -14 67 -42 45 -75 -60 -11 -36 -23 -71 -25
-77 -4 -8 3 -13 18 -13 72 0 182 -90 233 -190 30 -60 34 -99 13 -129 -26 -38
-139 -131 -158 -131 -11 0 -30 17 -47 43 -25 37 -35 43 -83 54 -30 6 -46 12
-34 12 50 2 83 24 123 81 42 60 50 87 29 108 -17 17 -90 15 -114 -3 -18 -14
-18 -14 6 -16 24 -1 24 -1 3 -7 -30 -10 -85 -61 -80 -75 5 -16 82 -21 104 -8
10 6 12 11 6 11 -15 0 -18 30 -3 30 6 0 10 -5 10 -11 0 -5 5 -7 11 -4 6 4 8
14 5 24 -5 14 -4 13 8 -2 12 -16 14 -16 27 -1 11 14 10 18 -6 31 -20 15 -20
15 0 11 30 -5 29 -29 -6 -70 -29 -37 -33 -38 -94 -38 -55 0 -66 3 -79 22 -9
12 -16 30 -16 38 0 20 45 62 83 78 34 14 111 16 136 2 24 -12 53 -57 61 -95
l7 -30 18 37 c16 32 17 43 7 77 -23 75 -130 142 -202 126 -37 -8 -57 -32 -74
-87 -7 -25 -32 -72 -55 -104 l-41 -57 0 59 c0 58 19 111 55 160 15 20 15 21
-9 17 -19 -4 -26 0 -32 19 -18 55 1 186 34 238 15 24 15 24 -4 11 -10 -8 -40
-35 -66 -59 -25 -24 -51 -41 -57 -38 -6 4 -18 22 -27 39 -9 18 -21 35 -26 38
-11 7 -209 -44 -210 -54 0 -4 2 -21 5 -37 5 -22 13 -31 34 -35 138 -30 236
-84 269 -146 l16 -32 -44 36 c-41 34 -122 76 -176 92 -20 6 -21 4 -12 -21 6
-14 31 -49 55 -76 28 -31 51 -70 61 -102 17 -53 17 -53 43 -40 35 19 71 18 71
-1 0 -8 -4 -15 -10 -15 -14 0 -50 -75 -50 -103 0 -36 31 -58 197 -141 83 -41
154 -80 158 -85 3 -6 -2 -33 -11 -61 -16 -48 -15 -74 1 -114 6 -14 5 -18 -6
-14 -24 8 -49 63 -50 109 -1 24 -8 54 -15 66 -7 12 -71 54 -141 95 -70 40
-145 90 -166 110 -36 34 -39 41 -34 78 3 22 1 40 -3 40 -16 0 -105 -98 -135
-149 -18 -30 -36 -50 -45 -48 -42 7 -64 167 -37 270 21 81 2 61 -58 -58 -26
-51 -53 -96 -60 -99 -7 -2 -25 9 -41 25 -15 16 -34 29 -41 29 -22 0 -15 12 39
75 88 103 109 175 63 220 -19 20 -34 25 -73 25 -64 0 -81 -14 -91 -78 -6 -39
-17 -62 -40 -86 -17 -18 -31 -43 -31 -56 0 -20 -2 -22 -11 -10 -8 11 -9 6 -7
-21 4 -41 -15 -44 -29 -4 -7 18 -12 21 -30 14 -27 -10 -30 -52 -8 -113 l13
-38 -39 5 c-47 6 -49 3 -9 -18 27 -14 30 -21 28 -53 -4 -43 16 -56 103 -71
l54 -9 -45 0 c-25 0 -56 3 -70 7 -28 8 -60 -13 -60 -40 0 -36 151 -158 307
-247 32 -18 74 -47 93 -63 35 -30 34 -30 -33 6 -37 21 -70 35 -73 32 -9 -9 16
-98 43 -149 32 -60 96 -111 173 -135 78 -25 215 -164 264 -267 19 -40 51 -92
70 -115 49 -58 48 -85 -1 -39 -30 28 -29 11 2 -32 24 -33 34 -67 16 -56 -5 3
-16 -5 -25 -19 -9 -14 -22 -25 -29 -25 -18 0 -57 -42 -57 -61 0 -20 37 -55 73
-68 40 -15 54 -14 31 3 -18 14 -18 15 11 21 17 4 38 9 47 11 19 6 58 -12 58
-25 0 -5 -12 -11 -28 -14 -23 -5 -29 -13 -38 -51 -9 -39 -8 -44 6 -36 8 4 24
18 35 30 26 29 59 47 53 28 -3 -7 -1 -21 4 -30 8 -16 13 -14 44 17 51 52 62
43 15 -12 -151 -177 -161 -191 -161 -228 0 -45 36 -81 97 -98 24 -6 43 -15 43
-20 0 -26 127 -48 160 -27 11 7 6 10 -21 10 -51 0 -81 27 -81 70 1 66 31 262
43 276 16 19 23 18 56 -10 22 -19 33 -43 49 -113 l22 -88 1 68 c1 59 3 67 20
67 11 0 34 -12 52 -27 36 -31 32 -19 -16 42 -17 22 -41 54 -53 71 l-22 31 44
-4 c26 -3 46 -1 50 6 5 7 -1 11 -13 11 -12 0 -43 9 -71 19 -33 13 -50 15 -50
8 0 -9 -2 -9 -8 -1 -4 7 -25 11 -47 10 l-40 -1 -3 43 -3 44 38 -2 c56 -3 56
-2 33 27 -17 22 -20 35 -14 82 3 31 7 113 7 183 l2 126 -50 10 -50 9 50 2 50
2 -85 25 c-139 41 -202 93 -97 81 52 -6 52 -6 -53 41 -58 27 -133 58 -166 71
-96 35 -107 85 -31 131 51 31 120 24 231 -23 48 -20 50 -23 103 -134 l53 -113
39 0 c21 0 57 6 79 14 52 18 124 64 118 75 -3 4 15 32 41 62 106 124 109 209
9 209 -50 0 -76 21 -59 48 38 61 143 -12 143 -98 -1 -47 -32 -114 -81 -172
-37 -45 -38 -47 -14 -38 15 6 39 10 54 10 23 0 31 7 45 38 10 21 35 58 57 83
l40 44 -41 -82 -40 -83 64 0 c118 0 265 43 293 87 l14 21 -42 -14 c-43 -15
-69 -13 -69 6 0 7 25 38 57 71 l56 59 -44 1 -44 1 35 10 c43 12 59 26 112 99
23 32 63 70 90 87 l49 29 -78 7 c-43 3 -98 9 -123 14 l-45 8 105 26 c99 24
103 26 79 38 -30 14 -49 48 -49 89 0 24 -12 37 -70 79 -80 59 -130 122 -130
164 0 19 4 28 13 25 6 -2 11 -15 9 -29 -3 -30 56 -102 102 -124 l31 -15 -35
32 c-50 47 -70 80 -64 106 4 15 2 23 -7 23 -8 1 -3 7 10 14 l24 14 -22 11
c-18 10 -29 9 -60 -7 -20 -11 -51 -23 -69 -27 -45 -10 -42 -29 30 -178 40 -85
63 -145 66 -178 5 -54 -13 -70 -24 -21 -12 48 -79 196 -115 252 -61 95 -67
122 -43 185 6 15 4 16 -13 7 -14 -8 -23 -8 -31 0 -8 8 -14 4 -23 -15 l-12 -26
-28 42 c-30 44 -36 67 -19 67 20 0 9 48 -19 87 -38 53 -105 109 -166 140 -27
14 -59 33 -69 42 -18 15 -19 15 -13 -1z m-944 -332 c-2 -2 -22 -9 -43 -15 -22
-5 -35 -6 -30 -2 9 9 37 18 63 20 8 0 12 -1 10 -3z m1064 -54 c26 -26 31 -41
38 -104 4 -40 13 -103 20 -139 12 -63 11 -73 -14 -170 -32 -122 -64 -175 -127
-206 -64 -33 -88 -30 -106 12 -19 46 -21 145 -5 216 11 43 27 72 78 135 93
114 103 132 103 187 0 66 -22 87 -97 88 -46 1 -53 3 -33 10 48 16 110 4 143
-29z m-1069 11 c6 -15 8 -15 16 -3 8 12 10 9 10 -10 0 -40 -36 -90 -65 -90
-30 0 -32 11 -4 36 33 29 42 53 28 70 -7 8 -7 14 -1 14 5 0 13 -8 16 -17z
m-121 -58 c-22 -28 -29 -32 -32 -18 -2 9 7 25 19 35 36 29 43 21 13 -17z m710
-195 c32 -8 32 -8 4 -9 -32 -1 -67 15 -67 31 0 7 5 6 15 -2 8 -7 30 -16 48
-20z m-532 -41 c49 -11 99 -45 99 -68 0 -16 -143 -3 -222 20 -36 10 -80 19
-96 19 -17 0 -39 3 -49 7 -11 5 14 12 72 19 124 15 137 16 196 3z m42 -118
c-7 -28 -33 -34 -54 -15 -24 22 -15 34 26 34 28 0 32 -3 28 -19z m-141 -141
c29 -17 47 -30 40 -30 -25 0 -108 48 -152 89 l-45 42 52 -36 c29 -20 76 -49
105 -65z m425 48 c-3 -8 -6 -5 -6 6 -1 11 2 17 5 13 3 -3 4 -12 1 -19z m-302
-144 c14 -9 23 -19 21 -21 -7 -7 -71 33 -87 54 -15 19 -13 18 66 -33z m845
-73 c0 -28 -19 -36 -35 -15 -10 14 -10 21 -2 26 21 14 37 8 37 -11z m4 -148
c4 -61 3 -100 -4 -107 -5 -5 -12 -7 -16 -4 -19 19 -33 185 -17 201 22 22 30 1
37 -90z m-215 -306 c19 -38 19 -73 0 -61 -10 6 -79 138 -79 151 0 16 61 -53
79 -90z m-114 -379 c26 -11 32 -23 17 -32 -13 -8 -85 14 -102 30 -12 12 -9 14
22 14 21 0 49 -5 63 -12z m184 1 c31 -11 39 -23 21 -34 -8 -5 -100 32 -100 41
0 8 48 4 79 -7z"/>
<path d="M995 2630 c-3 -5 -3 -14 0 -20 10 -16 -21 -11 -36 6 -11 14 -14 13
-25 -8 -11 -18 -13 -19 -14 -5 0 35 -90 7 -90 -29 0 -20 45 -18 123 6 56 17
64 23 60 40 -6 23 -9 24 -18 10z"/>
<path d="M2126 2548 c4 -35 8 -65 10 -67 2 -2 18 5 36 16 26 15 34 26 36 54 3
30 -1 37 -23 47 -14 7 -35 12 -46 12 -19 0 -20 -4 -13 -62z"/>
<path d="M770 2491 c0 -15 27 -44 38 -40 6 2 0 14 -13 26 -14 12 -25 18 -25
14z"/>
<path d="M775 2424 c-16 -8 -34 -19 -38 -24 -16 -15 3 -48 48 -84 l44 -36 26
45 c32 54 28 91 -11 105 -33 13 -34 13 -69 -6z"/>
<path d="M1921 2415 c0 -5 4 -18 8 -28 6 -17 8 -17 26 3 17 19 17 20 1 14 -11
-4 -21 -1 -27 7 -5 8 -8 10 -8 4z"/>
<path d="M2325 2305 c-33 -6 -71 -18 -85 -25 -23 -13 -24 -14 -5 -18 58 -10
160 -58 192 -89 32 -33 34 -39 31 -89 -3 -49 -1 -54 18 -54 33 0 41 18 43 102
4 145 -56 198 -194 173z"/>
<path d="M2260 2225 c0 -3 18 -12 40 -21 42 -17 100 -75 100 -99 0 -20 26 -19
34 1 13 33 -37 85 -103 109 -44 15 -71 19 -71 10z"/>
<path d="M2230 2178 c0 -8 7 -21 15 -28 19 -16 19 -1 0 24 -12 16 -15 17 -15
4z"/>
<path d="M2303 2161 c26 -17 52 -42 59 -56 6 -14 15 -25 20 -25 11 0 10 7 -6
38 -20 39 -48 61 -87 68 l-34 6 48 -31z"/>
<path d="M2519 1988 c-21 -63 -29 -75 -59 -91 l-35 -18 45 7 c116 17 179 102
114 153 -15 12 -30 21 -34 21 -4 0 -18 -33 -31 -72z"/>
<path d="M1785 1260 c-3 -5 3 -10 14 -10 12 0 21 -4 21 -10 0 -5 14 -10 31
-10 17 0 28 4 24 10 -4 6 18 11 57 11 l63 2 -55 7 c-81 12 -148 11 -155 0z"/>
<path d="M1662 953 c-18 -26 -84 -204 -77 -211 1 -2 28 10 59 25 50 24 54 28
35 35 -23 9 -23 17 0 128 5 25 8 46 6 48 -1 2 -12 -9 -23 -25z"/>
<path d="M1823 888 c-20 -26 -26 -41 -15 -34 12 7 36 46 29 46 -3 0 -9 -6 -14
-12z"/>
<path d="M1590 660 c19 -13 30 -13 30 0 0 6 -10 10 -22 10 -19 0 -20 -2 -8
-10z"/>
<path d="M1864 634 c-23 -23 -48 -44 -55 -47 -8 -3 0 -6 18 -6 43 -1 86 36 81
69 -3 25 -4 24 -44 -16z"/>
<path d="M1738 573 c6 -2 18 -2 25 0 6 3 1 5 -13 5 -14 0 -19 -2 -12 -5z"/>
<path d="M1630 230 c0 -5 7 -10 16 -10 8 0 12 5 9 10 -3 6 -10 10 -16 10 -5 0
-9 -4 -9 -10z"/>
</g>
</svg>
